<svg xmlns="http://www.w3.org/2000/svg" width="79" height="46" viewBox="0 0 79 46" fill="none"><g clip-path="url(#clip0_886_1439)"><mask id="mask0_886_1439" style="mask-type:luminance" maskUnits="userSpaceOnUse" x="0" y="0" width="79" height="46"><path d="M79 0H0V46H79V0Z" fill="white"></path></mask><g mask="url(#mask0_886_1439)"><path d="M16.7037 31.5308C16.7037 38.1127 11.6052 42.2354 1.40913 43.8987C0.769516 44.0061 0.405288 43.7464 0.316771 43.1206C0.26347 42.6734 0.343424 42.3692 0.556628 42.2086C0.716532 42.0651 1.12485 41.9134 1.78224 41.7524C5.1748 40.9653 7.67107 39.9367 9.26979 38.6672C11.0817 37.2185 11.9875 35.2776 11.9875 32.8453C11.9875 31.2357 11.419 29.9659 10.2822 29.0356C9.25171 28.177 7.95503 27.748 6.39185 27.748C5.52126 27.748 4.91718 27.7841 4.57992 27.8553C4.08244 27.9626 3.73599 27.7036 3.54086 27.0771C3.36288 26.5229 3.58496 26.1025 4.20713 25.8163C9.28724 23.4553 11.8279 21.0051 11.8279 18.4652C11.8279 16.2297 10.6464 15.1117 8.28404 15.1117C6.38296 15.1117 4.56247 15.604 2.82161 16.5872C2.2886 16.8916 1.80001 16.7843 1.35615 16.2652C1.17816 16.0505 1.08964 15.872 1.08964 15.7285C1.08964 15.4784 1.34695 15.165 1.86251 14.7897C4.15415 13.0551 6.67612 12.1875 9.43001 12.1875C14.2436 12.1875 16.6511 13.985 16.6511 17.58C16.6511 20.5672 14.2972 23.1336 9.58992 25.2799C11.7036 25.1908 13.4178 25.7093 14.7325 26.8359C16.0463 27.9626 16.7037 29.5279 16.7037 31.5308Z" fill="black"></path><path d="M43.6427 24.0716C43.6427 27.327 42.6078 29.9874 40.5386 32.0529C38.469 34.1188 35.8357 35.1515 32.6382 35.1515C29.4408 35.1515 26.8649 34.0875 24.9111 31.959C22.8502 29.6877 21.8203 26.5396 21.8203 22.5156C21.8203 17.1323 23.5964 12.3838 27.1495 8.26963C30.3469 4.56727 34.4679 1.90247 39.5131 0.274899C40.0103 0.113899 40.3301 0.23944 40.4722 0.650565C40.7029 1.29457 40.4189 1.83091 39.6194 2.26025C32.709 5.87348 28.6146 10.5594 27.3357 16.3184C28.9519 14.6374 31.208 13.7963 34.1037 13.7963C36.8747 13.7963 39.1483 14.7266 40.925 16.5864C42.7366 18.5005 43.6427 20.9953 43.6427 24.0716ZM38.8995 24.5546C38.8995 22.1223 38.3754 20.137 37.3275 18.5986C36.2085 16.9713 34.6805 16.157 32.7445 16.157C30.7901 16.157 29.2447 16.8905 28.1083 18.357C26.9712 19.8239 26.4029 21.8179 26.4029 24.3399C26.4029 26.8798 26.9759 28.914 28.1216 30.4432C29.2673 31.9724 30.8082 32.7372 32.7445 32.7372C34.7163 32.7372 36.2351 32.004 37.3008 30.5371C38.3668 29.0709 38.8995 27.0763 38.8995 24.5546Z" fill="black"></path><path d="M69.6755 23.4532C69.6755 26.816 68.6802 29.5613 66.6913 31.6895C64.6484 33.8895 61.9484 34.9893 58.5911 34.9893C55.4822 34.9893 52.9063 33.9655 50.864 31.9176C48.8211 29.8699 47.7998 27.2898 47.7998 24.1777C47.7998 20.69 48.901 17.8732 51.1038 15.7268C53.1994 13.706 55.8109 12.6953 58.9375 12.6953C62.0991 12.6953 64.6798 13.6926 66.678 15.6866C68.6764 17.6809 69.6755 20.27 69.6755 23.4532ZM64.9327 23.9631C64.9327 21.2446 64.3863 19.0896 63.294 17.4975C62.2016 15.906 60.7133 15.1097 58.8309 15.1097C56.77 15.1097 55.1804 15.9147 54.0614 17.5244C53.0129 19.0267 52.4894 21.0571 52.4894 23.6142C52.4894 26.5116 53.0531 28.7298 54.1814 30.2676C55.3092 31.8061 56.8591 32.575 58.8309 32.575C60.7314 32.575 62.2235 31.8371 63.3073 30.3615C64.3904 28.886 64.9327 26.7531 64.9327 23.9631Z" fill="black"></path><path d="M30.3218 41.9018C30.3218 42.0312 30.2275 42.1101 30.0388 42.1382C29.7742 42.1785 29.6193 42.2069 29.5756 42.2232C29.4309 42.2836 29.3589 42.4011 29.3589 42.5746V44.4715C29.3589 44.7098 29.0498 44.9644 28.4321 45.2349C27.7379 45.5378 26.9575 45.6895 26.0907 45.6895C24.8308 45.6895 23.7816 45.3116 22.943 44.5561C22.0925 43.7888 21.667 42.8049 21.667 41.6051C21.667 40.381 22.1064 39.3626 22.9852 38.5506C23.8358 37.767 24.859 37.375 26.0548 37.375C26.9736 37.375 27.7541 37.4862 28.3963 37.7082C28.8696 37.8698 29.1165 38.0315 29.1365 38.1931C29.1764 38.5001 29.1967 38.9547 29.1967 39.5568C29.1967 39.69 29.1146 39.7609 28.9499 39.7689C28.7573 39.7769 28.639 39.7223 28.5949 39.6054C28.3741 39.0032 28.0641 38.57 27.665 38.3055C27.2658 38.041 26.717 37.9085 26.019 37.9085C25.0561 37.9085 24.3038 38.2056 23.7619 38.7994C23.2042 39.4175 22.9253 40.3024 22.9253 41.4537C22.9253 42.565 23.2464 43.4595 23.8885 44.1383C24.5104 44.8008 25.3108 45.1321 26.2899 45.1321C26.7915 45.1321 27.2589 45.0413 27.6923 44.8593C28.1053 44.6858 28.3122 44.5098 28.3122 44.3322V43.0717C28.3122 42.7727 28.2519 42.5564 28.1317 42.4232C28.0273 42.3021 27.8207 42.1951 27.5117 42.1018C27.283 42.0331 27.1748 41.9504 27.1868 41.8536C27.2027 41.7485 27.23 41.684 27.2681 41.6597C27.3061 41.6354 27.4035 41.6335 27.5599 41.6536C28.4147 41.7587 29.2453 41.7667 30.0518 41.6779C30.0959 41.6738 30.1321 41.6718 30.16 41.6718C30.2675 41.6715 30.3218 41.7482 30.3218 41.9018Z" fill="black"></path><path d="M38.6998 45.527C38.7039 45.62 38.6255 45.6663 38.465 45.6663C37.0243 45.6663 35.6641 44.424 34.3843 41.9394C33.8906 41.9636 33.6279 41.9758 33.5959 41.9758V44.5208C33.5959 44.7109 33.6419 44.837 33.7342 44.8996C33.8265 44.9623 34.0312 45.0178 34.3481 45.0661C34.5686 45.1025 34.679 45.1811 34.679 45.3025C34.679 45.4034 34.6609 45.466 34.6248 45.4903C34.5886 45.5146 34.4883 45.5226 34.324 45.5146C33.5978 45.4823 32.8052 45.4986 31.9464 45.5631C31.7738 45.5753 31.6878 45.5047 31.6878 45.351C31.6878 45.2459 31.7738 45.1852 31.9464 45.1693C32.3395 45.129 32.5362 44.9127 32.5362 44.5208V38.7155C32.5362 38.3319 32.3135 38.0955 31.868 38.0067C31.6475 37.9623 31.5371 37.8917 31.5371 37.7946C31.5371 37.6451 31.6114 37.5703 31.7598 37.5703C31.8039 37.5703 31.8522 37.5745 31.9042 37.5825C32.0689 37.6067 32.3195 37.6189 32.6568 37.6189C32.7691 37.6189 33.0521 37.6128 33.5054 37.6007C33.9588 37.5885 34.3802 37.5825 34.7694 37.5825C35.5718 37.5825 36.2057 37.7339 36.6715 38.037C37.1931 38.3724 37.4539 38.8673 37.4539 39.5218C37.4539 40.6408 36.8117 41.38 35.5277 41.7397C35.937 42.6773 36.4186 43.481 36.9722 44.1515C37.5379 44.8383 38.0475 45.2181 38.5008 45.2906C38.6255 45.3111 38.6918 45.3897 38.6998 45.527ZM36.2803 39.6671C36.2803 39.0691 36.1277 38.643 35.8228 38.3884C35.5179 38.1341 35.0302 38.0067 34.3602 38.0067C34.0591 38.0067 33.8567 38.0482 33.7523 38.1309C33.6479 38.2137 33.5959 38.3926 33.5959 38.6673V41.5215C34.567 41.4893 35.265 41.3174 35.6905 41.0063C36.0836 40.7197 36.2803 40.2731 36.2803 39.6671Z" fill="black"></path><path d="M48.3114 41.5204C48.3114 42.688 47.8818 43.6776 47.0236 44.4897C46.1809 45.2896 45.1676 45.6895 43.9838 45.6895C42.7398 45.6895 41.7068 45.3138 40.8841 44.5622C40.0415 43.7866 39.6201 42.7848 39.6201 41.5565C39.6201 40.3688 40.0475 39.3709 40.9022 38.5627C41.7449 37.7708 42.7719 37.375 43.9838 37.375C45.2196 37.375 46.2469 37.7609 47.0655 38.5327C47.8964 39.3166 48.3114 40.3123 48.3114 41.5204ZM47.0902 41.7265C47.0902 40.5506 46.771 39.6217 46.1327 38.9387C45.5188 38.2841 44.7085 37.957 43.7012 37.957C42.8664 37.957 42.1814 38.2672 41.6456 38.8872C41.1097 39.5073 40.8419 40.3142 40.8419 41.3083C40.8419 42.5002 41.1528 43.4374 41.7747 44.1201C42.3807 44.7826 43.203 45.1139 44.2424 45.1139C45.0813 45.1139 45.7653 44.8027 46.2948 44.1808C46.8243 43.5588 47.0902 42.7404 47.0902 41.7265Z" fill="black"></path><path d="M58.6283 37.7446C58.6283 37.8254 58.5379 37.888 58.3573 37.9324C58.0442 38.0053 57.8456 38.0781 57.7612 38.1506C57.6489 38.2516 57.5927 38.4394 57.5927 38.7141V42.1865C57.5927 43.2978 57.3059 44.1539 56.7323 44.7561C56.1425 45.3784 55.2874 45.6892 54.1681 45.6892C51.8007 45.6892 50.6172 44.5679 50.6172 42.3258V38.6899C50.6172 38.3062 50.3945 38.0736 49.9494 37.9928C49.7968 37.9647 49.7035 37.9382 49.6692 37.9139C49.635 37.8896 49.6182 37.8411 49.6182 37.7683C49.6182 37.643 49.6483 37.5705 49.7086 37.5501C49.7365 37.5379 49.8307 37.536 49.9916 37.544C51.0706 37.6005 51.8955 37.6005 52.4653 37.544C52.5856 37.5319 52.6586 37.5379 52.6849 37.5622C52.7109 37.5865 52.7239 37.6552 52.7239 37.7683C52.7239 37.8532 52.6376 37.9158 52.4653 37.9561C52.1284 38.0289 51.9333 38.0813 51.8812 38.1136C51.7531 38.1944 51.689 38.3599 51.689 38.6106V42.1133C51.689 43.1435 51.9015 43.899 52.327 44.3798C52.7521 44.8606 53.4365 45.1008 54.3794 45.1008C55.9965 45.1008 56.8053 44.1635 56.8053 42.289V38.7985C56.8053 38.5237 56.7348 38.3238 56.5946 38.1985C56.4823 38.0934 56.2853 38.0168 56.0048 37.9682C55.7843 37.928 55.6739 37.8529 55.6739 37.744C55.6739 37.6188 55.7059 37.5459 55.77 37.5258C55.7941 37.5178 55.8884 37.5159 56.053 37.5197C57.1689 37.5641 57.937 37.5641 58.3586 37.5197C58.5188 37.5034 58.607 37.5357 58.6232 37.6165C58.6261 37.6456 58.6283 37.6881 58.6283 37.7446Z" fill="black"></path><path d="M69.0583 37.6591C69.0583 37.76 68.9502 37.8431 68.7335 37.9076C68.2518 38.045 68.0114 38.3258 68.0114 38.75V43.1072C68.0114 44.0243 68.0234 44.7639 68.0475 45.3251C68.0555 45.5391 68.0053 45.6602 67.8968 45.6886C67.7163 45.7331 67.5637 45.6382 67.4396 45.4037C67.2388 45.0197 66.4526 44.0745 65.0801 42.5677C63.9325 41.3113 62.8208 40.1377 61.7456 39.0468C61.7094 39.0103 61.6733 39.0004 61.6371 39.0164C61.5971 39.0365 61.5771 39.0829 61.5771 39.156V44.1253C61.5771 44.6584 61.844 44.976 62.3776 45.0769C62.5981 45.1213 62.7085 45.2002 62.7085 45.3133C62.7085 45.467 62.5838 45.5375 62.3354 45.5254C61.3801 45.4852 60.6377 45.4852 60.1082 45.5254C59.9356 45.5375 59.8496 45.467 59.8496 45.3133C59.8496 45.2283 59.9356 45.1676 60.1082 45.1315C60.4172 45.0587 60.6237 44.96 60.7281 44.8348C60.8322 44.7095 60.8845 44.4974 60.8845 44.1984V38.835C60.8845 38.6008 60.8366 38.421 60.7402 38.2957C60.6479 38.1827 60.4692 38.0654 60.2046 37.944C60.0079 37.8511 59.9137 37.7562 59.9216 37.6591C59.9337 37.5502 60.0238 37.5077 60.1926 37.532C60.7142 37.6048 61.1653 37.6208 61.547 37.5805C61.7434 37.5604 61.9201 37.6351 62.0765 37.8048L67.1201 43.2161C67.1884 43.2931 67.2344 43.3311 67.2588 43.3311C67.2908 43.3311 67.3067 43.2768 67.3067 43.1676V38.7864C67.3067 38.2734 67.0399 37.9702 66.5065 37.8773C66.3178 37.845 66.2235 37.7885 66.2235 37.7076C66.2235 37.538 66.3095 37.4633 66.4821 37.4834C67.1401 37.5562 67.8746 37.5482 68.6849 37.4591C68.8252 37.4431 68.9156 37.4409 68.9559 37.453C69.0244 37.4735 69.0583 37.5422 69.0583 37.6591Z" fill="black"></path><path d="M78.785 41.3833C78.785 42.7892 78.3237 43.8558 77.4008 44.5832C76.5381 45.254 75.3385 45.5891 73.8017 45.5891C73.6732 45.5891 73.3822 45.577 72.9289 45.5527C72.4752 45.5284 72.1262 45.5163 71.8816 45.5163C71.5525 45.5163 71.1874 45.5322 70.786 45.5648C70.6134 45.5808 70.5274 45.5102 70.5274 45.3527C70.5274 45.2476 70.6134 45.1869 70.786 45.1709C71.1791 45.1307 71.3758 44.9144 71.3758 44.5225V38.7169C71.3758 38.4987 71.3314 38.3514 71.2435 38.2745C71.1709 38.2141 71.0125 38.1572 70.7679 38.1048C70.563 38.0646 70.4389 38.0301 70.3948 38.002C70.3504 37.9739 70.3244 37.9132 70.3165 37.8202C70.3044 37.7234 70.3466 37.6605 70.4427 37.6324C70.4627 37.6282 70.5512 37.6202 70.7077 37.6081C71.5703 37.5515 72.7137 37.5234 74.138 37.5234C75.5222 37.5234 76.6358 37.8589 77.4785 38.5294C78.3497 39.2242 78.785 40.1755 78.785 41.3833ZM77.527 41.5472C77.527 39.204 76.3312 38.0323 73.9397 38.0323H73.0973C72.6557 38.0726 72.4352 38.1959 72.4352 38.4019V44.0254C72.4352 44.4215 72.5393 44.686 72.748 44.8192C72.9565 44.9524 73.374 45.0192 74 45.0192C76.3512 45.0195 77.527 43.8619 77.527 41.5472Z" fill="black"></path></g></g><defs><clipPath id="clip0_886_1439"><rect width="79" height="46" fill="white"></rect></clipPath></defs></svg>